<svg width="155" height="65" viewBox="0 0 155 65" fill="none" xmlns="http://www.w3.org/2000/svg">
<path d="M2.52991 4.73001C1.33991 4.73001 0.379883 3.75999 0.379883 2.57999C0.379883 1.38999 1.34991 0.429993 2.52991 0.429993C3.71991 0.429993 4.67987 1.39999 4.67987 2.57999C4.68987 3.75999 3.71991 4.73001 2.52991 4.73001Z" fill="#244579"/>
<path d="M2.52991 14.73C1.33991 14.73 0.379883 13.76 0.379883 12.58C0.379883 11.39 1.34991 10.43 2.52991 10.43C3.71991 10.43 4.67987 11.4 4.67987 12.58C4.68987 13.76 3.71991 14.73 2.52991 14.73Z" fill="#244579"/>
<path d="M2.52991 24.73C1.33991 24.73 0.379883 23.76 0.379883 22.58C0.379883 21.39 1.34991 20.43 2.52991 20.43C3.71991 20.43 4.67987 21.4 4.67987 22.58C4.68987 23.76 3.71991 24.73 2.52991 24.73Z" fill="#244579"/>
<path d="M2.52991 34.73C1.33991 34.73 0.379883 33.76 0.379883 32.58C0.379883 31.39 1.34991 30.43 2.52991 30.43C3.71991 30.43 4.67987 31.4 4.67987 32.58C4.68987 33.76 3.71991 34.73 2.52991 34.73Z" fill="#244579"/>
<path d="M2.52991 44.73C1.33991 44.73 0.379883 43.76 0.379883 42.58C0.379883 41.39 1.34991 40.43 2.52991 40.43C3.71991 40.43 4.67987 41.4 4.67987 42.58C4.68987 43.76 3.71991 44.73 2.52991 44.73Z" fill="#244579"/>
<path d="M2.52991 54.73C1.33991 54.73 0.379883 53.76 0.379883 52.58C0.379883 51.39 1.34991 50.43 2.52991 50.43C3.71991 50.43 4.67987 51.4 4.67987 52.58C4.68987 53.76 3.71991 54.73 2.52991 54.73Z" fill="#244579"/>
<path d="M2.52991 64.73C1.33991 64.73 0.379883 63.76 0.379883 62.58C0.379883 61.39 1.34991 60.43 2.52991 60.43C3.71991 60.43 4.67987 61.4 4.67987 62.58C4.68987 63.76 3.71991 64.73 2.52991 64.73Z" fill="#244579"/>
<path d="M12.5299 4.73001C11.3399 4.73001 10.3799 3.75999 10.3799 2.57999C10.3799 1.38999 11.3499 0.429993 12.5299 0.429993C13.7199 0.429993 14.6799 1.39999 14.6799 2.57999C14.6899 3.75999 13.7199 4.73001 12.5299 4.73001Z" fill="#244579"/>
<path d="M12.5299 14.73C11.3399 14.73 10.3799 13.76 10.3799 12.58C10.3799 11.39 11.3499 10.43 12.5299 10.43C13.7199 10.43 14.6799 11.4 14.6799 12.58C14.6899 13.76 13.7199 14.73 12.5299 14.73Z" fill="#244579"/>
<path d="M12.5299 24.73C11.3399 24.73 10.3799 23.76 10.3799 22.58C10.3799 21.39 11.3499 20.43 12.5299 20.43C13.7199 20.43 14.6799 21.4 14.6799 22.58C14.6899 23.76 13.7199 24.73 12.5299 24.73Z" fill="#244579"/>
<path d="M12.5299 34.73C11.3399 34.73 10.3799 33.76 10.3799 32.58C10.3799 31.39 11.3499 30.43 12.5299 30.43C13.7199 30.43 14.6799 31.4 14.6799 32.58C14.6899 33.76 13.7199 34.73 12.5299 34.73Z" fill="#244579"/>
<path d="M12.5299 44.73C11.3399 44.73 10.3799 43.76 10.3799 42.58C10.3799 41.39 11.3499 40.43 12.5299 40.43C13.7199 40.43 14.6799 41.4 14.6799 42.58C14.6899 43.76 13.7199 44.73 12.5299 44.73Z" fill="#244579"/>
<path d="M12.5299 54.73C11.3399 54.73 10.3799 53.76 10.3799 52.58C10.3799 51.39 11.3499 50.43 12.5299 50.43C13.7199 50.43 14.6799 51.4 14.6799 52.58C14.6899 53.76 13.7199 54.73 12.5299 54.73Z" fill="#244579"/>
<path d="M12.5299 64.73C11.3399 64.73 10.3799 63.76 10.3799 62.58C10.3799 61.39 11.3499 60.43 12.5299 60.43C13.7199 60.43 14.6799 61.4 14.6799 62.58C14.6899 63.76 13.7199 64.73 12.5299 64.73Z" fill="#244579"/>
<path d="M22.5299 4.73001C21.3399 4.73001 20.3799 3.75999 20.3799 2.57999C20.3799 1.38999 21.3499 0.429993 22.5299 0.429993C23.7199 0.429993 24.6799 1.39999 24.6799 2.57999C24.6899 3.75999 23.7199 4.73001 22.5299 4.73001Z" fill="#244579"/>
<path d="M22.5299 14.73C21.3399 14.73 20.3799 13.76 20.3799 12.58C20.3799 11.39 21.3499 10.43 22.5299 10.43C23.7199 10.43 24.6799 11.4 24.6799 12.58C24.6899 13.76 23.7199 14.73 22.5299 14.73Z" fill="#244579"/>
<path d="M22.5299 24.73C21.3399 24.73 20.3799 23.76 20.3799 22.58C20.3799 21.39 21.3499 20.43 22.5299 20.43C23.7199 20.43 24.6799 21.4 24.6799 22.58C24.6899 23.76 23.7199 24.73 22.5299 24.73Z" fill="#244579"/>
<path d="M22.5299 34.73C21.3399 34.73 20.3799 33.76 20.3799 32.58C20.3799 31.39 21.3499 30.43 22.5299 30.43C23.7199 30.43 24.6799 31.4 24.6799 32.58C24.6899 33.76 23.7199 34.73 22.5299 34.73Z" fill="#244579"/>
<path d="M22.5299 44.73C21.3399 44.73 20.3799 43.76 20.3799 42.58C20.3799 41.39 21.3499 40.43 22.5299 40.43C23.7199 40.43 24.6799 41.4 24.6799 42.58C24.6899 43.76 23.7199 44.73 22.5299 44.73Z" fill="#244579"/>
<path d="M22.5299 54.73C21.3399 54.73 20.3799 53.76 20.3799 52.58C20.3799 51.39 21.3499 50.43 22.5299 50.43C23.7199 50.43 24.6799 51.4 24.6799 52.58C24.6899 53.76 23.7199 54.73 22.5299 54.73Z" fill="#244579"/>
<path d="M22.5299 64.73C21.3399 64.73 20.3799 63.76 20.3799 62.58C20.3799 61.39 21.3499 60.43 22.5299 60.43C23.7199 60.43 24.6799 61.4 24.6799 62.58C24.6899 63.76 23.7199 64.73 22.5299 64.73Z" fill="#244579"/>
<path d="M32.5299 4.73001C31.3399 4.73001 30.3799 3.75999 30.3799 2.57999C30.3799 1.38999 31.3499 0.429993 32.5299 0.429993C33.7199 0.429993 34.6799 1.39999 34.6799 2.57999C34.6899 3.75999 33.7199 4.73001 32.5299 4.73001Z" fill="#244579"/>
<path d="M32.5299 14.73C31.3399 14.73 30.3799 13.76 30.3799 12.58C30.3799 11.39 31.3499 10.43 32.5299 10.43C33.7199 10.43 34.6799 11.4 34.6799 12.58C34.6899 13.76 33.7199 14.73 32.5299 14.73Z" fill="#244579"/>
<path d="M32.5299 24.73C31.3399 24.73 30.3799 23.76 30.3799 22.58C30.3799 21.39 31.3499 20.43 32.5299 20.43C33.7199 20.43 34.6799 21.4 34.6799 22.58C34.6899 23.76 33.7199 24.73 32.5299 24.73Z" fill="#244579"/>
<path d="M32.5299 34.73C31.3399 34.73 30.3799 33.76 30.3799 32.58C30.3799 31.39 31.3499 30.43 32.5299 30.43C33.7199 30.43 34.6799 31.4 34.6799 32.58C34.6899 33.76 33.7199 34.73 32.5299 34.73Z" fill="#244579"/>
<path d="M32.5299 44.73C31.3399 44.73 30.3799 43.76 30.3799 42.58C30.3799 41.39 31.3499 40.43 32.5299 40.43C33.7199 40.43 34.6799 41.4 34.6799 42.58C34.6899 43.76 33.7199 44.73 32.5299 44.73Z" fill="#244579"/>
<path d="M32.5299 54.73C31.3399 54.73 30.3799 53.76 30.3799 52.58C30.3799 51.39 31.3499 50.43 32.5299 50.43C33.7199 50.43 34.6799 51.4 34.6799 52.58C34.6899 53.76 33.7199 54.73 32.5299 54.73Z" fill="#244579"/>
<path d="M32.5299 64.73C31.3399 64.73 30.3799 63.76 30.3799 62.58C30.3799 61.39 31.3499 60.43 32.5299 60.43C33.7199 60.43 34.6799 61.4 34.6799 62.58C34.6899 63.76 33.7199 64.73 32.5299 64.73Z" fill="#244579"/>
<path d="M42.5299 4.73001C41.3399 4.73001 40.3799 3.75999 40.3799 2.57999C40.3799 1.38999 41.3499 0.429993 42.5299 0.429993C43.7199 0.429993 44.6799 1.39999 44.6799 2.57999C44.6899 3.75999 43.7199 4.73001 42.5299 4.73001Z" fill="#244579"/>
<path d="M42.5299 14.73C41.3399 14.73 40.3799 13.76 40.3799 12.58C40.3799 11.39 41.3499 10.43 42.5299 10.43C43.7199 10.43 44.6799 11.4 44.6799 12.58C44.6899 13.76 43.7199 14.73 42.5299 14.73Z" fill="#244579"/>
<path d="M42.5299 24.73C41.3399 24.73 40.3799 23.76 40.3799 22.58C40.3799 21.39 41.3499 20.43 42.5299 20.43C43.7199 20.43 44.6799 21.4 44.6799 22.58C44.6899 23.76 43.7199 24.73 42.5299 24.73Z" fill="#244579"/>
<path d="M42.5299 34.73C41.3399 34.73 40.3799 33.76 40.3799 32.58C40.3799 31.39 41.3499 30.43 42.5299 30.43C43.7199 30.43 44.6799 31.4 44.6799 32.58C44.6899 33.76 43.7199 34.73 42.5299 34.73Z" fill="#244579"/>
<path d="M42.5299 44.73C41.3399 44.73 40.3799 43.76 40.3799 42.58C40.3799 41.39 41.3499 40.43 42.5299 40.43C43.7199 40.43 44.6799 41.4 44.6799 42.58C44.6899 43.76 43.7199 44.73 42.5299 44.73Z" fill="#244579"/>
<path d="M42.5299 54.73C41.3399 54.73 40.3799 53.76 40.3799 52.58C40.3799 51.39 41.3499 50.43 42.5299 50.43C43.7199 50.43 44.6799 51.4 44.6799 52.58C44.6899 53.76 43.7199 54.73 42.5299 54.73Z" fill="#244579"/>
<path d="M42.5299 64.73C41.3399 64.73 40.3799 63.76 40.3799 62.58C40.3799 61.39 41.3499 60.43 42.5299 60.43C43.7199 60.43 44.6799 61.4 44.6799 62.58C44.6899 63.76 43.7199 64.73 42.5299 64.73Z" fill="#244579"/>
<path d="M52.5299 4.73001C51.3399 4.73001 50.3799 3.75999 50.3799 2.57999C50.3799 1.38999 51.3499 0.429993 52.5299 0.429993C53.7199 0.429993 54.6799 1.39999 54.6799 2.57999C54.6899 3.75999 53.7199 4.73001 52.5299 4.73001Z" fill="#244579"/>
<path d="M52.5299 14.73C51.3399 14.73 50.3799 13.76 50.3799 12.58C50.3799 11.39 51.3499 10.43 52.5299 10.43C53.7199 10.43 54.6799 11.4 54.6799 12.58C54.6899 13.76 53.7199 14.73 52.5299 14.73Z" fill="#244579"/>
<path d="M52.5299 24.73C51.3399 24.73 50.3799 23.76 50.3799 22.58C50.3799 21.39 51.3499 20.43 52.5299 20.43C53.7199 20.43 54.6799 21.4 54.6799 22.58C54.6899 23.76 53.7199 24.73 52.5299 24.73Z" fill="#244579"/>
<path d="M52.5299 34.73C51.3399 34.73 50.3799 33.76 50.3799 32.58C50.3799 31.39 51.3499 30.43 52.5299 30.43C53.7199 30.43 54.6799 31.4 54.6799 32.58C54.6899 33.76 53.7199 34.73 52.5299 34.73Z" fill="#244579"/>
<path d="M52.5299 44.73C51.3399 44.73 50.3799 43.76 50.3799 42.58C50.3799 41.39 51.3499 40.43 52.5299 40.43C53.7199 40.43 54.6799 41.4 54.6799 42.58C54.6899 43.76 53.7199 44.73 52.5299 44.73Z" fill="#244579"/>
<path d="M52.5299 54.73C51.3399 54.73 50.3799 53.76 50.3799 52.58C50.3799 51.39 51.3499 50.43 52.5299 50.43C53.7199 50.43 54.6799 51.4 54.6799 52.58C54.6899 53.76 53.7199 54.73 52.5299 54.73Z" fill="#244579"/>
<path d="M52.5299 64.73C51.3399 64.73 50.3799 63.76 50.3799 62.58C50.3799 61.39 51.3499 60.43 52.5299 60.43C53.7199 60.43 54.6799 61.4 54.6799 62.58C54.6899 63.76 53.7199 64.73 52.5299 64.73Z" fill="#244579"/>
<path d="M62.5299 4.73001C61.3399 4.73001 60.3799 3.75999 60.3799 2.57999C60.3799 1.38999 61.3499 0.429993 62.5299 0.429993C63.7199 0.429993 64.6799 1.39999 64.6799 2.57999C64.6899 3.75999 63.7199 4.73001 62.5299 4.73001Z" fill="#244579"/>
<path d="M62.5299 14.73C61.3399 14.73 60.3799 13.76 60.3799 12.58C60.3799 11.39 61.3499 10.43 62.5299 10.43C63.7199 10.43 64.6799 11.4 64.6799 12.58C64.6899 13.76 63.7199 14.73 62.5299 14.73Z" fill="#244579"/>
<path d="M62.5299 24.73C61.3399 24.73 60.3799 23.76 60.3799 22.58C60.3799 21.39 61.3499 20.43 62.5299 20.43C63.7199 20.43 64.6799 21.4 64.6799 22.58C64.6899 23.76 63.7199 24.73 62.5299 24.73Z" fill="#244579"/>
<path d="M62.5299 34.73C61.3399 34.73 60.3799 33.76 60.3799 32.58C60.3799 31.39 61.3499 30.43 62.5299 30.43C63.7199 30.43 64.6799 31.4 64.6799 32.58C64.6899 33.76 63.7199 34.73 62.5299 34.73Z" fill="#244579"/>
<path d="M62.5299 44.73C61.3399 44.73 60.3799 43.76 60.3799 42.58C60.3799 41.39 61.3499 40.43 62.5299 40.43C63.7199 40.43 64.6799 41.4 64.6799 42.58C64.6899 43.76 63.7199 44.73 62.5299 44.73Z" fill="#244579"/>
<path d="M62.5299 54.73C61.3399 54.73 60.3799 53.76 60.3799 52.58C60.3799 51.39 61.3499 50.43 62.5299 50.43C63.7199 50.43 64.6799 51.4 64.6799 52.58C64.6899 53.76 63.7199 54.73 62.5299 54.73Z" fill="#244579"/>
<path d="M62.5299 64.73C61.3399 64.73 60.3799 63.76 60.3799 62.58C60.3799 61.39 61.3499 60.43 62.5299 60.43C63.7199 60.43 64.6799 61.4 64.6799 62.58C64.6899 63.76 63.7199 64.73 62.5299 64.73Z" fill="#244579"/>
<path d="M72.5299 4.73001C71.3399 4.73001 70.3799 3.75999 70.3799 2.57999C70.3799 1.38999 71.3499 0.429993 72.5299 0.429993C73.7199 0.429993 74.6799 1.39999 74.6799 2.57999C74.6899 3.75999 73.7199 4.73001 72.5299 4.73001Z" fill="#244579"/>
<path d="M72.5299 14.73C71.3399 14.73 70.3799 13.76 70.3799 12.58C70.3799 11.39 71.3499 10.43 72.5299 10.43C73.7199 10.43 74.6799 11.4 74.6799 12.58C74.6899 13.76 73.7199 14.73 72.5299 14.73Z" fill="#244579"/>
<path d="M72.5299 24.73C71.3399 24.73 70.3799 23.76 70.3799 22.58C70.3799 21.39 71.3499 20.43 72.5299 20.43C73.7199 20.43 74.6799 21.4 74.6799 22.58C74.6899 23.76 73.7199 24.73 72.5299 24.73Z" fill="#244579"/>
<path d="M72.5299 34.73C71.3399 34.73 70.3799 33.76 70.3799 32.58C70.3799 31.39 71.3499 30.43 72.5299 30.43C73.7199 30.43 74.6799 31.4 74.6799 32.58C74.6899 33.76 73.7199 34.73 72.5299 34.73Z" fill="#244579"/>
<path d="M72.5299 44.73C71.3399 44.73 70.3799 43.76 70.3799 42.58C70.3799 41.39 71.3499 40.43 72.5299 40.43C73.7199 40.43 74.6799 41.4 74.6799 42.58C74.6899 43.76 73.7199 44.73 72.5299 44.73Z" fill="#244579"/>
<path d="M72.5299 54.73C71.3399 54.73 70.3799 53.76 70.3799 52.58C70.3799 51.39 71.3499 50.43 72.5299 50.43C73.7199 50.43 74.6799 51.4 74.6799 52.58C74.6899 53.76 73.7199 54.73 72.5299 54.73Z" fill="#244579"/>
<path d="M72.5299 64.73C71.3399 64.73 70.3799 63.76 70.3799 62.58C70.3799 61.39 71.3499 60.43 72.5299 60.43C73.7199 60.43 74.6799 61.4 74.6799 62.58C74.6899 63.76 73.7199 64.73 72.5299 64.73Z" fill="#244579"/>
<path d="M82.5299 4.73001C81.3399 4.73001 80.3799 3.75999 80.3799 2.57999C80.3799 1.38999 81.3499 0.429993 82.5299 0.429993C83.7199 0.429993 84.6799 1.39999 84.6799 2.57999C84.6899 3.75999 83.7199 4.73001 82.5299 4.73001Z" fill="#244579"/>
<path d="M82.5299 14.73C81.3399 14.73 80.3799 13.76 80.3799 12.58C80.3799 11.39 81.3499 10.43 82.5299 10.43C83.7199 10.43 84.6799 11.4 84.6799 12.58C84.6899 13.76 83.7199 14.73 82.5299 14.73Z" fill="#244579"/>
<path d="M82.5299 24.73C81.3399 24.73 80.3799 23.76 80.3799 22.58C80.3799 21.39 81.3499 20.43 82.5299 20.43C83.7199 20.43 84.6799 21.4 84.6799 22.58C84.6899 23.76 83.7199 24.73 82.5299 24.73Z" fill="#244579"/>
<path d="M82.5299 34.73C81.3399 34.73 80.3799 33.76 80.3799 32.58C80.3799 31.39 81.3499 30.43 82.5299 30.43C83.7199 30.43 84.6799 31.4 84.6799 32.58C84.6899 33.76 83.7199 34.73 82.5299 34.73Z" fill="#244579"/>
<path d="M82.5299 44.73C81.3399 44.73 80.3799 43.76 80.3799 42.58C80.3799 41.39 81.3499 40.43 82.5299 40.43C83.7199 40.43 84.6799 41.4 84.6799 42.58C84.6899 43.76 83.7199 44.73 82.5299 44.73Z" fill="#244579"/>
<path d="M82.5299 54.73C81.3399 54.73 80.3799 53.76 80.3799 52.58C80.3799 51.39 81.3499 50.43 82.5299 50.43C83.7199 50.43 84.6799 51.4 84.6799 52.58C84.6899 53.76 83.7199 54.73 82.5299 54.73Z" fill="#244579"/>
<path d="M82.5299 64.73C81.3399 64.73 80.3799 63.76 80.3799 62.58C80.3799 61.39 81.3499 60.43 82.5299 60.43C83.7199 60.43 84.6799 61.4 84.6799 62.58C84.6899 63.76 83.7199 64.73 82.5299 64.73Z" fill="#244579"/>
<path d="M92.5299 4.73001C91.3399 4.73001 90.3799 3.75999 90.3799 2.57999C90.3799 1.38999 91.3499 0.429993 92.5299 0.429993C93.7199 0.429993 94.6799 1.39999 94.6799 2.57999C94.6899 3.75999 93.7199 4.73001 92.5299 4.73001Z" fill="#244579"/>
<path d="M92.5299 14.73C91.3399 14.73 90.3799 13.76 90.3799 12.58C90.3799 11.39 91.3499 10.43 92.5299 10.43C93.7199 10.43 94.6799 11.4 94.6799 12.58C94.6899 13.76 93.7199 14.73 92.5299 14.73Z" fill="#244579"/>
<path d="M92.5299 24.73C91.3399 24.73 90.3799 23.76 90.3799 22.58C90.3799 21.39 91.3499 20.43 92.5299 20.43C93.7199 20.43 94.6799 21.4 94.6799 22.58C94.6899 23.76 93.7199 24.73 92.5299 24.73Z" fill="#244579"/>
<path d="M92.5299 34.73C91.3399 34.73 90.3799 33.76 90.3799 32.58C90.3799 31.39 91.3499 30.43 92.5299 30.43C93.7199 30.43 94.6799 31.4 94.6799 32.58C94.6899 33.76 93.7199 34.73 92.5299 34.73Z" fill="#244579"/>
<path d="M92.5299 44.73C91.3399 44.73 90.3799 43.76 90.3799 42.58C90.3799 41.39 91.3499 40.43 92.5299 40.43C93.7199 40.43 94.6799 41.4 94.6799 42.58C94.6899 43.76 93.7199 44.73 92.5299 44.73Z" fill="#244579"/>
<path d="M92.5299 54.73C91.3399 54.73 90.3799 53.76 90.3799 52.58C90.3799 51.39 91.3499 50.43 92.5299 50.43C93.7199 50.43 94.6799 51.4 94.6799 52.58C94.6899 53.76 93.7199 54.73 92.5299 54.73Z" fill="#244579"/>
<path d="M92.5299 64.73C91.3399 64.73 90.3799 63.76 90.3799 62.58C90.3799 61.39 91.3499 60.43 92.5299 60.43C93.7199 60.43 94.6799 61.4 94.6799 62.58C94.6899 63.76 93.7199 64.73 92.5299 64.73Z" fill="#244579"/>
<path d="M102.53 4.73001C101.34 4.73001 100.38 3.75999 100.38 2.57999C100.38 1.38999 101.35 0.429993 102.53 0.429993C103.72 0.429993 104.68 1.39999 104.68 2.57999C104.69 3.75999 103.72 4.73001 102.53 4.73001Z" fill="#244579"/>
<path d="M102.53 14.73C101.34 14.73 100.38 13.76 100.38 12.58C100.38 11.39 101.35 10.43 102.53 10.43C103.72 10.43 104.68 11.4 104.68 12.58C104.69 13.76 103.72 14.73 102.53 14.73Z" fill="#244579"/>
<path d="M102.53 24.73C101.34 24.73 100.38 23.76 100.38 22.58C100.38 21.39 101.35 20.43 102.53 20.43C103.72 20.43 104.68 21.4 104.68 22.58C104.69 23.76 103.72 24.73 102.53 24.73Z" fill="#244579"/>
<path d="M102.53 34.73C101.34 34.73 100.38 33.76 100.38 32.58C100.38 31.39 101.35 30.43 102.53 30.43C103.72 30.43 104.68 31.4 104.68 32.58C104.69 33.76 103.72 34.73 102.53 34.73Z" fill="#244579"/>
<path d="M102.53 44.73C101.34 44.73 100.38 43.76 100.38 42.58C100.38 41.39 101.35 40.43 102.53 40.43C103.72 40.43 104.68 41.4 104.68 42.58C104.69 43.76 103.72 44.73 102.53 44.73Z" fill="#244579"/>
<path d="M102.53 54.73C101.34 54.73 100.38 53.76 100.38 52.58C100.38 51.39 101.35 50.43 102.53 50.43C103.72 50.43 104.68 51.4 104.68 52.58C104.69 53.76 103.72 54.73 102.53 54.73Z" fill="#244579"/>
<path d="M102.53 64.73C101.34 64.73 100.38 63.76 100.38 62.58C100.38 61.39 101.35 60.43 102.53 60.43C103.72 60.43 104.68 61.4 104.68 62.58C104.69 63.76 103.72 64.73 102.53 64.73Z" fill="#244579"/>
<path d="M112.53 4.73001C111.34 4.73001 110.38 3.75999 110.38 2.57999C110.38 1.38999 111.35 0.429993 112.53 0.429993C113.72 0.429993 114.68 1.39999 114.68 2.57999C114.69 3.75999 113.72 4.73001 112.53 4.73001Z" fill="#244579"/>
<path d="M112.53 14.73C111.34 14.73 110.38 13.76 110.38 12.58C110.38 11.39 111.35 10.43 112.53 10.43C113.72 10.43 114.68 11.4 114.68 12.58C114.69 13.76 113.72 14.73 112.53 14.73Z" fill="#244579"/>
<path d="M112.53 24.73C111.34 24.73 110.38 23.76 110.38 22.58C110.38 21.39 111.35 20.43 112.53 20.43C113.72 20.43 114.68 21.4 114.68 22.58C114.69 23.76 113.72 24.73 112.53 24.73Z" fill="#244579"/>
<path d="M112.53 34.73C111.34 34.73 110.38 33.76 110.38 32.58C110.38 31.39 111.35 30.43 112.53 30.43C113.72 30.43 114.68 31.4 114.68 32.58C114.69 33.76 113.72 34.73 112.53 34.73Z" fill="#244579"/>
<path d="M112.53 44.73C111.34 44.73 110.38 43.76 110.38 42.58C110.38 41.39 111.35 40.43 112.53 40.43C113.72 40.43 114.68 41.4 114.68 42.58C114.69 43.76 113.72 44.73 112.53 44.73Z" fill="#244579"/>
<path d="M112.53 54.73C111.34 54.73 110.38 53.76 110.38 52.58C110.38 51.39 111.35 50.43 112.53 50.43C113.72 50.43 114.68 51.4 114.68 52.58C114.69 53.76 113.72 54.73 112.53 54.73Z" fill="#244579"/>
<path d="M112.53 64.73C111.34 64.73 110.38 63.76 110.38 62.58C110.38 61.39 111.35 60.43 112.53 60.43C113.72 60.43 114.68 61.4 114.68 62.58C114.69 63.76 113.72 64.73 112.53 64.73Z" fill="#244579"/>
<path d="M122.53 4.73001C121.34 4.73001 120.38 3.75999 120.38 2.57999C120.38 1.38999 121.35 0.429993 122.53 0.429993C123.72 0.429993 124.68 1.39999 124.68 2.57999C124.69 3.75999 123.72 4.73001 122.53 4.73001Z" fill="#244579"/>
<path d="M122.53 14.73C121.34 14.73 120.38 13.76 120.38 12.58C120.38 11.39 121.35 10.43 122.53 10.43C123.72 10.43 124.68 11.4 124.68 12.58C124.69 13.76 123.72 14.73 122.53 14.73Z" fill="#244579"/>
<path d="M122.53 24.73C121.34 24.73 120.38 23.76 120.38 22.58C120.38 21.39 121.35 20.43 122.53 20.43C123.72 20.43 124.68 21.4 124.68 22.58C124.69 23.76 123.72 24.73 122.53 24.73Z" fill="#244579"/>
<path d="M122.53 34.73C121.34 34.73 120.38 33.76 120.38 32.58C120.38 31.39 121.35 30.43 122.53 30.43C123.72 30.43 124.68 31.4 124.68 32.58C124.69 33.76 123.72 34.73 122.53 34.73Z" fill="#244579"/>
<path d="M122.53 44.73C121.34 44.73 120.38 43.76 120.38 42.58C120.38 41.39 121.35 40.43 122.53 40.43C123.72 40.43 124.68 41.4 124.68 42.58C124.69 43.76 123.72 44.73 122.53 44.73Z" fill="#244579"/>
<path d="M122.53 54.73C121.34 54.73 120.38 53.76 120.38 52.58C120.38 51.39 121.35 50.43 122.53 50.43C123.72 50.43 124.68 51.4 124.68 52.58C124.69 53.76 123.72 54.73 122.53 54.73Z" fill="#244579"/>
<path d="M122.53 64.73C121.34 64.73 120.38 63.76 120.38 62.58C120.38 61.39 121.35 60.43 122.53 60.43C123.72 60.43 124.68 61.4 124.68 62.58C124.69 63.76 123.72 64.73 122.53 64.73Z" fill="#244579"/>
<path d="M132.53 4.73001C131.34 4.73001 130.38 3.75999 130.38 2.57999C130.38 1.38999 131.35 0.429993 132.53 0.429993C133.72 0.429993 134.68 1.39999 134.68 2.57999C134.69 3.75999 133.72 4.73001 132.53 4.73001Z" fill="#244579"/>
<path d="M132.53 14.73C131.34 14.73 130.38 13.76 130.38 12.58C130.38 11.39 131.35 10.43 132.53 10.43C133.72 10.43 134.68 11.4 134.68 12.58C134.69 13.76 133.72 14.73 132.53 14.73Z" fill="#244579"/>
<path d="M132.53 24.73C131.34 24.73 130.38 23.76 130.38 22.58C130.38 21.39 131.35 20.43 132.53 20.43C133.72 20.43 134.68 21.4 134.68 22.58C134.69 23.76 133.72 24.73 132.53 24.73Z" fill="#244579"/>
<path d="M132.53 34.73C131.34 34.73 130.38 33.76 130.38 32.58C130.38 31.39 131.35 30.43 132.53 30.43C133.72 30.43 134.68 31.4 134.68 32.58C134.69 33.76 133.72 34.73 132.53 34.73Z" fill="#244579"/>
<path d="M132.53 44.73C131.34 44.73 130.38 43.76 130.38 42.58C130.38 41.39 131.35 40.43 132.53 40.43C133.72 40.43 134.68 41.4 134.68 42.58C134.69 43.76 133.72 44.73 132.53 44.73Z" fill="#244579"/>
<path d="M132.53 54.73C131.34 54.73 130.38 53.76 130.38 52.58C130.38 51.39 131.35 50.43 132.53 50.43C133.72 50.43 134.68 51.4 134.68 52.58C134.69 53.76 133.72 54.73 132.53 54.73Z" fill="#244579"/>
<path d="M132.53 64.73C131.34 64.73 130.38 63.76 130.38 62.58C130.38 61.39 131.35 60.43 132.53 60.43C133.72 60.43 134.68 61.4 134.68 62.58C134.69 63.76 133.72 64.73 132.53 64.73Z" fill="#244579"/>
<path d="M142.53 4.73001C141.34 4.73001 140.38 3.75999 140.38 2.57999C140.38 1.38999 141.35 0.429993 142.53 0.429993C143.72 0.429993 144.68 1.39999 144.68 2.57999C144.69 3.75999 143.72 4.73001 142.53 4.73001Z" fill="#244579"/>
<path d="M142.53 14.73C141.34 14.73 140.38 13.76 140.38 12.58C140.38 11.39 141.35 10.43 142.53 10.43C143.72 10.43 144.68 11.4 144.68 12.58C144.69 13.76 143.72 14.73 142.53 14.73Z" fill="#244579"/>
<path d="M142.53 24.73C141.34 24.73 140.38 23.76 140.38 22.58C140.38 21.39 141.35 20.43 142.53 20.43C143.72 20.43 144.68 21.4 144.68 22.58C144.69 23.76 143.72 24.73 142.53 24.73Z" fill="#244579"/>
<path d="M142.53 34.73C141.34 34.73 140.38 33.76 140.38 32.58C140.38 31.39 141.35 30.43 142.53 30.43C143.72 30.43 144.68 31.4 144.68 32.58C144.69 33.76 143.72 34.73 142.53 34.73Z" fill="#244579"/>
<path d="M142.53 44.73C141.34 44.73 140.38 43.76 140.38 42.58C140.38 41.39 141.35 40.43 142.53 40.43C143.72 40.43 144.68 41.4 144.68 42.58C144.69 43.76 143.72 44.73 142.53 44.73Z" fill="#244579"/>
<path d="M142.53 54.73C141.34 54.73 140.38 53.76 140.38 52.58C140.38 51.39 141.35 50.43 142.53 50.43C143.72 50.43 144.68 51.4 144.68 52.58C144.69 53.76 143.72 54.73 142.53 54.73Z" fill="#244579"/>
<path d="M142.53 64.73C141.34 64.73 140.38 63.76 140.38 62.58C140.38 61.39 141.35 60.43 142.53 60.43C143.72 60.43 144.68 61.4 144.68 62.58C144.69 63.76 143.72 64.73 142.53 64.73Z" fill="#244579"/>
<path d="M152.53 4.73001C151.34 4.73001 150.38 3.75999 150.38 2.57999C150.38 1.38999 151.35 0.429993 152.53 0.429993C153.72 0.429993 154.68 1.39999 154.68 2.57999C154.69 3.75999 153.72 4.73001 152.53 4.73001Z" fill="#244579"/>
<path d="M152.53 14.73C151.34 14.73 150.38 13.76 150.38 12.58C150.38 11.39 151.35 10.43 152.53 10.43C153.72 10.43 154.68 11.4 154.68 12.58C154.69 13.76 153.72 14.73 152.53 14.73Z" fill="#244579"/>
<path d="M152.53 24.73C151.34 24.73 150.38 23.76 150.38 22.58C150.38 21.39 151.35 20.43 152.53 20.43C153.72 20.43 154.68 21.4 154.68 22.58C154.69 23.76 153.72 24.73 152.53 24.73Z" fill="#244579"/>
<path d="M152.53 34.73C151.34 34.73 150.38 33.76 150.38 32.58C150.38 31.39 151.35 30.43 152.53 30.43C153.72 30.43 154.68 31.4 154.68 32.58C154.69 33.76 153.72 34.73 152.53 34.73Z" fill="#244579"/>
<path d="M152.53 44.73C151.34 44.73 150.38 43.76 150.38 42.58C150.38 41.39 151.35 40.43 152.53 40.43C153.72 40.43 154.68 41.4 154.68 42.58C154.69 43.76 153.72 44.73 152.53 44.73Z" fill="#244579"/>
<path d="M152.53 54.73C151.34 54.73 150.38 53.76 150.38 52.58C150.38 51.39 151.35 50.43 152.53 50.43C153.72 50.43 154.68 51.4 154.68 52.58C154.69 53.76 153.72 54.73 152.53 54.73Z" fill="#244579"/>
<path d="M152.53 64.73C151.34 64.73 150.38 63.76 150.38 62.58C150.38 61.39 151.35 60.43 152.53 60.43C153.72 60.43 154.68 61.4 154.68 62.58C154.69 63.76 153.72 64.73 152.53 64.73Z" fill="#244579"/>
</svg>
