<svg width="50" height="50" viewBox="0 0 50 50" fill="none" xmlns="http://www.w3.org/2000/svg">
<path d="M12.5442 46.4284H17.8823V35.2149C16.6683 35.3613 15.4312 35.4399 14.1746 35.4399C13.6292 35.4399 13.086 35.4041 12.5442 35.3899V46.4284ZM9.87518 35.122C8.06246 34.8577 6.27732 34.4316 4.53711 33.8345V46.4284H9.87518V35.122ZM36.5655 46.4284H41.9036V14.0002H41.7688C40.9312 18.1388 39.1131 21.8849 36.5655 25.0491V46.4284ZM20.5513 46.4284H25.8894V33.0749C24.1932 33.7981 22.4076 34.3681 20.5513 34.7659V46.4284ZM33.8965 27.9138C32.2933 29.3959 30.5001 30.6874 28.5584 31.7674V46.4284H33.8965V27.9138ZM45.4623 12.6656L40.2479 8.11843L35.0335 3.57129L29.8191 8.11843L24.6047 12.6656H30.3111C28.3894 24.4677 17.485 33.6488 5.07581 31.6963C4.52999 31.6106 4.30891 32.3456 4.84538 32.532C20.2884 37.9066 38.0798 29.0756 40.6532 12.6656H45.4623Z" fill="#476C8F"/>
</svg>
