<svg width="100" height="59" viewBox="0 0 100 59" fill="none" xmlns="http://www.w3.org/2000/svg">
<path d="M8.83997 28.03L15.68 34.86L17.69 32.85L8.83997 24L0 32.85L2.01001 34.86L8.83997 28.03Z" fill="#0B315E"/>
<path d="M8.83997 39.9601L15.68 46.79L17.69 44.7801L8.83997 35.9301L0 44.7801L2.01001 46.79L8.83997 39.9601Z" fill="#0B315E"/>
<path d="M8.83997 52.03L15.68 58.87L17.69 56.85L8.83997 48.01L0 56.85L2.01001 58.87L8.83997 52.03Z" fill="#0B315E"/>
<path d="M8.83997 4.03003L15.68 10.86L17.69 8.85001L8.83997 0L0 8.85001L2.01001 10.86L8.83997 4.03003Z" fill="#0B315E"/>
<path d="M8.83997 15.9601L15.68 22.79L17.69 20.7801L8.83997 11.9301L0 20.7801L2.01001 22.79L8.83997 15.9601Z" fill="#0B315E"/>
<path d="M22.5299 28.03L29.3699 34.86L31.3799 32.85L22.5299 24L13.6899 32.85L15.7 34.86L22.5299 28.03Z" fill="#0B315E"/>
<path d="M22.5299 39.9601L29.3699 46.79L31.3799 44.7801L22.5299 35.9301L13.6899 44.7801L15.7 46.79L22.5299 39.9601Z" fill="#0B315E"/>
<path d="M22.5299 52.03L29.3699 58.87L31.3799 56.85L22.5299 48.01L13.6899 56.85L15.7 58.87L22.5299 52.03Z" fill="#0B315E"/>
<path d="M22.5299 4.03003L29.3699 10.86L31.3799 8.85001L22.5299 0L13.6899 8.85001L15.7 10.86L22.5299 4.03003Z" fill="#0B315E"/>
<path d="M22.5299 15.9601L29.3699 22.79L31.3799 20.7801L22.5299 11.9301L13.6899 20.7801L15.7 22.79L22.5299 15.9601Z" fill="#0B315E"/>
<path d="M36.2198 28.03L43.0599 34.86L45.0699 32.85L36.2198 24L27.3799 32.85L29.3899 34.86L36.2198 28.03Z" fill="#0B315E"/>
<path d="M36.2198 39.9601L43.0599 46.79L45.0699 44.7801L36.2198 35.9301L27.3799 44.7801L29.3899 46.79L36.2198 39.9601Z" fill="#0B315E"/>
<path d="M36.2198 52.03L43.0599 58.87L45.0699 56.85L36.2198 48.01L27.3799 56.85L29.3899 58.87L36.2198 52.03Z" fill="#0B315E"/>
<path d="M36.2198 4.03003L43.0599 10.86L45.0699 8.85001L36.2198 0L27.3799 8.85001L29.3899 10.86L36.2198 4.03003Z" fill="#0B315E"/>
<path d="M36.2198 15.9601L43.0599 22.79L45.0699 20.7801L36.2198 11.9301L27.3799 20.7801L29.3899 22.79L36.2198 15.9601Z" fill="#0B315E"/>
<path d="M49.9098 28.03L56.7498 34.86L58.7598 32.85L49.9098 24L41.0698 32.85L43.0798 34.86L49.9098 28.03Z" fill="#0B315E"/>
<path d="M49.9098 39.9601L56.7498 46.79L58.7598 44.7801L49.9098 35.9301L41.0698 44.7801L43.0798 46.79L49.9098 39.9601Z" fill="#0B315E"/>
<path d="M49.9098 52.03L56.7498 58.87L58.7598 56.85L49.9098 48.01L41.0698 56.85L43.0798 58.87L49.9098 52.03Z" fill="#0B315E"/>
<path d="M49.9098 4.03003L56.7498 10.86L58.7598 8.85001L49.9098 0L41.0698 8.85001L43.0798 10.86L49.9098 4.03003Z" fill="#0B315E"/>
<path d="M49.9098 15.9601L56.7498 22.79L58.7598 20.7801L49.9098 11.9301L41.0698 20.7801L43.0798 22.79L49.9098 15.9601Z" fill="#0B315E"/>
<path d="M63.5997 28.03L70.4398 34.86L72.4498 32.85L63.5997 24L54.7598 32.85L56.7698 34.86L63.5997 28.03Z" fill="#0B315E"/>
<path d="M63.5997 39.9601L70.4398 46.79L72.4498 44.7801L63.5997 35.9301L54.7598 44.7801L56.7698 46.79L63.5997 39.9601Z" fill="#0B315E"/>
<path d="M63.5997 52.03L70.4398 58.87L72.4498 56.85L63.5997 48.01L54.7598 56.85L56.7698 58.87L63.5997 52.03Z" fill="#0B315E"/>
<path d="M63.5997 4.03003L70.4398 10.86L72.4498 8.85001L63.5997 0L54.7598 8.85001L56.7698 10.86L63.5997 4.03003Z" fill="#0B315E"/>
<path d="M63.5997 15.9601L70.4398 22.79L72.4498 20.7801L63.5997 11.9301L54.7598 20.7801L56.7698 22.79L63.5997 15.9601Z" fill="#0B315E"/>
<path d="M77.2897 28.03L84.1297 34.86L86.1397 32.85L77.2897 24L68.4497 32.85L70.4597 34.86L77.2897 28.03Z" fill="#0B315E"/>
<path d="M77.2897 39.9601L84.1297 46.79L86.1397 44.7801L77.2897 35.9301L68.4497 44.7801L70.4597 46.79L77.2897 39.9601Z" fill="#0B315E"/>
<path d="M77.2897 52.03L84.1297 58.87L86.1397 56.85L77.2897 48.01L68.4497 56.85L70.4597 58.87L77.2897 52.03Z" fill="#0B315E"/>
<path d="M77.2897 4.03003L84.1297 10.86L86.1397 8.85001L77.2897 0L68.4497 8.85001L70.4597 10.86L77.2897 4.03003Z" fill="#0B315E"/>
<path d="M77.2897 15.9601L84.1297 22.79L86.1397 20.7801L77.2897 11.9301L68.4497 20.7801L70.4597 22.79L77.2897 15.9601Z" fill="#0B315E"/>
<path d="M90.9796 28.03L97.8196 34.86L99.8297 32.85L90.9796 24L82.1396 32.85L84.1497 34.86L90.9796 28.03Z" fill="#0B315E"/>
<path d="M90.9796 39.9601L97.8196 46.79L99.8297 44.7801L90.9796 35.9301L82.1396 44.7801L84.1497 46.79L90.9796 39.9601Z" fill="#0B315E"/>
<path d="M90.9796 52.03L97.8196 58.87L99.8297 56.85L90.9796 48.01L82.1396 56.85L84.1497 58.87L90.9796 52.03Z" fill="#0B315E"/>
<path d="M90.9796 4.03003L97.8196 10.86L99.8297 8.85001L90.9796 0L82.1396 8.85001L84.1497 10.86L90.9796 4.03003Z" fill="#0B315E"/>
<path d="M90.9796 15.9601L97.8196 22.79L99.8297 20.7801L90.9796 11.9301L82.1396 20.7801L84.1497 22.79L90.9796 15.9601Z" fill="#0B315E"/>
</svg>
