<svg width="49" height="49" viewBox="0 0 49 49" fill="none" xmlns="http://www.w3.org/2000/svg">
<path d="M24.2188 48.4375C37.5781 48.4375 48.4375 37.5781 48.4375 24.2188C48.4375 10.8594 37.5781 0 24.2188 0C10.8594 0 0 10.8594 0 24.2188C0 37.5781 10.8594 48.4375 24.2188 48.4375ZM5.46875 33.8672L15.3125 33.7891C16.4063 37.7344 18.2422 41.5625 20.7422 45C14.0625 43.9062 8.47656 39.6484 5.46875 33.8672ZM17.8125 17.5781H30.0781C30.9766 21.875 30.9766 26.2891 30.1562 30.5859L17.8125 30.6641C16.9141 26.3281 16.9141 21.875 17.8125 17.5781ZM23.9453 44.1016C21.4844 40.9375 19.6875 37.4609 18.5937 33.7891L29.3359 33.7109C28.2031 37.3828 26.4062 40.8984 23.9453 44.1016ZM27.0703 45.1172C29.6484 41.6016 31.4844 37.7344 32.5781 33.6719L43.0859 33.5938C40.0391 39.7266 34.1016 44.1406 27.0703 45.1172ZM45.3125 24.2188C45.3125 26.4062 44.9609 28.5156 44.375 30.4688L33.3203 30.5469C34.1016 26.25 34.0625 21.875 33.2422 17.5781H44.2187C44.9219 19.6484 45.3125 21.9141 45.3125 24.2188ZM42.8906 14.4531H32.5C31.3672 10.5469 29.5703 6.75781 27.0703 3.32031C33.9844 4.25781 39.8047 8.51563 42.8906 14.4531ZM29.2578 14.4531H18.6328C19.7656 10.8594 21.5234 7.46094 23.9453 4.33594C26.3672 7.46094 28.125 10.8594 29.2578 14.4531ZM20.7422 3.4375C18.2812 6.83594 16.4844 10.5469 15.3906 14.4531H5.54688C8.55469 8.71094 14.1016 4.53125 20.7422 3.4375ZM14.6484 17.5781C13.8281 21.9141 13.8281 26.3281 14.6094 30.6641L4.17969 30.7422C3.47656 28.6719 3.125 26.4844 3.125 24.2188C3.125 21.9141 3.51563 19.6484 4.21875 17.5781H14.6484Z" fill="#476C8F"/>
</svg>
