<svg width="64" height="64" viewBox="0 0 64 64" fill="none" xmlns="http://www.w3.org/2000/svg">
<path d="M37.4389 45.1389C37.228 45.0482 37.0484 44.8977 36.9222 44.706C36.796 44.5143 36.7288 44.2898 36.7289 44.0603C36.7274 43.8963 36.7596 43.7337 36.8236 43.5827C36.8875 43.4317 36.9819 43.2954 37.1007 43.1823C37.1732 43.1132 37.2426 43.0452 37.2946 42.9904C37.6623 42.6032 37.9867 42.1771 38.2621 41.7196C38.9864 40.511 39.3454 39.1185 39.2959 37.7103C39.2464 36.3021 38.7904 34.9383 37.983 33.7835C37.1756 32.6287 36.0512 31.7322 34.7456 31.2022C33.44 30.6722 32.009 30.5313 30.6251 30.7966C29.2149 31.0435 27.9115 31.709 26.8846 32.7066C25.8577 33.7043 25.1547 34.9878 24.8671 36.3903C24.6012 37.5979 24.6465 38.8532 24.9986 40.0386C25.3507 41.2239 25.9981 42.3004 26.8802 43.1671C26.9999 43.2805 27.0957 43.4168 27.162 43.5677C27.2283 43.7187 27.2638 43.8815 27.2664 44.0464V44.0525C27.2685 44.2839 27.2023 44.5107 27.076 44.7047C26.9497 44.8986 26.7689 45.0509 26.5564 45.1425C23.6475 46.3474 21.3278 48.646 20.0964 51.5438C19.2307 53.5284 18.7964 55.6742 18.8224 57.8392V59.3992C18.8224 59.7337 18.8883 60.065 19.0163 60.374C19.1444 60.6831 19.3321 60.9639 19.5687 61.2004C19.8053 61.437 20.0861 61.6246 20.3952 61.7525C20.7044 61.8805 21.0356 61.9463 21.3702 61.9462H42.6312C43.3066 61.9461 43.9543 61.6778 44.4319 61.2001C44.9095 60.7225 45.1778 60.0748 45.1778 59.3994V57.8237C45.2037 55.6595 44.7687 53.5147 43.9017 51.5317C42.668 48.6364 40.3474 46.3409 37.4389 45.1389Z" fill="#476C8F"/>
<path d="M23.6601 43.573C22.7033 42.756 21.6222 42.0971 20.4575 41.6209C20.2467 41.5302 20.0672 41.3797 19.941 41.188C19.8148 40.9963 19.7475 40.7718 19.7475 40.5423C19.7461 40.3783 19.7783 40.2157 19.8424 40.0647C19.9064 39.9136 20.0007 39.7774 20.1196 39.6643C20.1918 39.5951 20.2614 39.5271 20.3134 39.4722C20.6811 39.0853 21.0054 38.6595 21.2807 38.2022C22.0052 36.9936 22.3643 35.6011 22.3149 34.1929C22.2654 32.7846 21.8095 31.4208 21.0021 30.2659C20.1947 29.1111 19.0703 28.2145 17.7647 27.6845C16.4591 27.1545 15.0279 27.0137 13.644 27.279C12.2338 27.5259 10.9304 28.1915 9.9035 29.1891C8.87657 30.1867 8.17357 31.4702 7.88593 32.8727C7.62011 34.0804 7.66537 35.3357 8.01747 36.521C8.36957 37.7064 9.01696 38.7829 9.89893 39.6495C10.0187 39.7629 10.1145 39.8991 10.1808 40.0501C10.2472 40.2011 10.2826 40.3638 10.2851 40.5287V40.535C10.2873 40.7665 10.2211 40.9934 10.0948 41.1873C9.96847 41.3812 9.78769 41.5335 9.57513 41.625C6.66628 42.83 4.3466 45.1286 3.11513 48.0263C2.2494 50.0109 1.81508 52.1567 1.84093 54.3216V55.8823C1.84092 56.2168 1.90678 56.5479 2.03476 56.8569C2.16273 57.1659 2.35031 57.4466 2.58679 57.6831C2.82326 57.9196 3.104 58.1071 3.41298 58.2351C3.72195 58.3631 4.05311 58.429 4.38753 58.4289H16.1229V57.8396C16.0938 55.2915 16.6095 52.7665 17.6356 50.4338C18.867 47.5669 20.9764 45.1647 23.6601 43.573Z" fill="#476C8F"/>
<path d="M60.8826 48.0136C59.6491 45.1185 57.3287 42.8231 54.4205 41.6209C54.2097 41.5302 54.0301 41.3796 53.9039 41.188C53.7778 40.9963 53.7105 40.7718 53.7105 40.5423C53.709 40.3783 53.7413 40.2157 53.8052 40.0647C53.8692 39.9137 53.9636 39.7774 54.0824 39.6643C54.1549 39.5951 54.2245 39.5271 54.2762 39.4722C54.644 39.0854 54.9684 38.6595 55.2438 38.2022C55.9682 36.9936 56.3273 35.6011 56.2778 34.1929C56.2284 32.7846 55.7724 31.4208 54.965 30.2659C54.1576 29.1111 53.0333 28.2146 51.7276 27.6846C50.422 27.1545 48.9909 27.0137 47.607 27.279C46.1967 27.5259 44.8933 28.1914 43.8664 29.189C42.8395 30.1866 42.1365 31.4702 41.849 32.8727C41.5831 34.0803 41.6283 35.3357 41.9804 36.521C42.3325 37.7064 42.9799 38.7829 43.8619 39.6495C43.9816 39.7629 44.0774 39.8991 44.1437 40.0501C44.2101 40.2011 44.2455 40.3638 44.2481 40.5287V40.535C44.2503 40.7665 44.1841 40.9934 44.0578 41.1873C43.9314 41.3812 43.7506 41.5335 43.5381 41.625C42.3763 42.1009 41.2977 42.7587 40.3428 43.5737C43.0221 45.1623 45.1292 47.5589 46.3616 50.4196C47.39 52.7513 47.907 55.2763 47.8777 57.8246V58.4289H59.6121C60.2875 58.4289 60.9352 58.1606 61.4129 57.6831C61.8905 57.2055 62.1588 56.5577 62.1589 55.8823V54.3057C62.1848 52.1416 61.7497 49.9967 60.8826 48.0136Z" fill="#476C8F"/>
<path d="M19.5244 16.9624L21.9568 17.4189C22.1846 17.4599 22.3977 17.56 22.5747 17.7092C22.7517 17.8584 22.8865 18.0514 22.9656 18.2689C23.0765 18.5837 23.2041 18.8924 23.3477 19.1936C23.4452 19.4032 23.4862 19.6347 23.4664 19.8651C23.4466 20.0954 23.3668 20.3166 23.2349 20.5064L21.8382 22.5482C21.7248 22.7138 21.6729 22.9139 21.6915 23.1137C21.7101 23.3136 21.798 23.5006 21.94 23.6424L23.4243 25.1268C23.5661 25.2688 23.7532 25.3568 23.953 25.3753C24.1529 25.3939 24.353 25.342 24.5186 25.2286L26.5603 23.8319C26.7501 23.7 26.9713 23.6202 27.2016 23.6004C27.432 23.5807 27.6635 23.6216 27.8731 23.7192C28.1744 23.8627 28.4831 23.9902 28.7979 24.1012C29.0155 24.1802 29.2085 24.315 29.3577 24.492C29.5069 24.6691 29.6069 24.8822 29.6479 25.11L30.1044 27.5424C30.1413 27.7397 30.246 27.9179 30.4005 28.046C30.5549 28.1742 30.7494 28.2443 30.9501 28.2442H33.0498C33.2505 28.2443 33.4449 28.1742 33.5994 28.0461C33.7539 27.9179 33.8586 27.7397 33.8956 27.5424L34.3521 25.11C34.393 24.8822 34.4931 24.6691 34.6423 24.4921C34.7914 24.315 34.9845 24.1803 35.2021 24.1012C35.5168 23.9902 35.8255 23.8626 36.1269 23.7191C36.3364 23.6216 36.5679 23.5806 36.7983 23.6004C37.0286 23.6202 37.2497 23.7 37.4396 23.8319L39.4814 25.2286C39.647 25.342 39.8471 25.3938 40.047 25.3752C40.2468 25.3566 40.4339 25.2688 40.5759 25.1268L42.0598 23.6426C42.2017 23.5008 42.2896 23.3138 42.3082 23.1139C42.3268 22.9141 42.2749 22.714 42.1616 22.5484L40.7649 20.5066C40.633 20.3168 40.5531 20.0957 40.5333 19.8653C40.5136 19.635 40.5545 19.4035 40.6521 19.1939C40.7956 18.8926 40.9232 18.5839 41.0342 18.2691C41.1132 18.0516 41.248 17.8585 41.425 17.7094C41.6021 17.5602 41.8151 17.4601 42.043 17.4191L44.4753 16.9626C44.6726 16.9257 44.8507 16.821 44.9789 16.6665C45.1071 16.5121 45.1772 16.3177 45.1772 16.1169V14.0176C45.1772 13.8169 45.1071 13.6225 44.9789 13.468C44.8507 13.3136 44.6726 13.2088 44.4753 13.1719L42.043 12.7155C41.8151 12.6745 41.6021 12.5744 41.425 12.4253C41.248 12.2761 41.1132 12.0831 41.0342 11.8655C40.9232 11.5507 40.7957 11.242 40.6521 10.9407C40.5545 10.7311 40.5136 10.4996 40.5333 10.2693C40.5531 10.0389 40.633 9.81781 40.7649 9.62794L42.1616 7.58614C42.275 7.4205 42.3269 7.2204 42.3084 7.0205C42.2898 6.8206 42.2018 6.6335 42.0598 6.49164L40.5755 5.00744C40.4336 4.86538 40.2465 4.77744 40.0466 4.75885C39.8467 4.74026 39.6466 4.79218 39.481 4.90564L37.4392 6.30234C37.2493 6.43424 37.0282 6.51406 36.7979 6.53384C36.5675 6.55361 36.336 6.51265 36.1265 6.41504C35.8251 6.27158 35.5164 6.14407 35.2017 6.03304C34.9841 5.95401 34.791 5.81924 34.6419 5.6422C34.4927 5.46517 34.3926 5.25208 34.3517 5.02424L33.8952 2.59164C33.8581 2.39451 33.7533 2.21654 33.599 2.08845C33.4446 1.96037 33.2503 1.89022 33.0498 1.89014H30.9498C30.7491 1.89004 30.5547 1.96014 30.4002 2.08829C30.2458 2.21644 30.141 2.39458 30.1041 2.59184L29.6478 5.02444C29.6067 5.25226 29.5066 5.46532 29.3575 5.64234C29.2083 5.81937 29.0153 5.95415 28.7978 6.03324C28.483 6.14421 28.1743 6.27172 27.873 6.41524C27.6634 6.51285 27.4319 6.55381 27.2015 6.53404C26.9712 6.51426 26.75 6.43444 26.5602 6.30254L24.5186 4.90564C24.353 4.79221 24.1529 4.74028 23.9531 4.75883C23.7532 4.77739 23.5661 4.86527 23.4243 5.00724L21.9398 6.49154C21.7977 6.6334 21.7098 6.82047 21.6912 7.02035C21.6726 7.22023 21.7245 7.42031 21.838 7.58594L23.2347 9.62774C23.3666 9.81761 23.4464 10.0387 23.4662 10.2691C23.486 10.4994 23.445 10.7309 23.3475 10.9405C23.2039 11.2418 23.0763 11.5505 22.9654 11.8653C22.8863 12.0829 22.7516 12.276 22.5745 12.4251C22.3975 12.5743 22.1844 12.6744 21.9566 12.7153L19.5242 13.1718C19.3269 13.2088 19.1488 13.3136 19.0206 13.4681C18.8925 13.6225 18.8223 13.8168 18.8223 14.0175V16.1166C18.8222 16.3174 18.8923 16.5119 19.0205 16.6664C19.1488 16.8208 19.327 16.9256 19.5244 16.9624ZM31.9998 10.1831C32.9657 10.1831 33.91 10.4696 34.7132 11.0062C35.5163 11.5429 36.1423 12.3057 36.512 13.1981C36.8816 14.0905 36.9784 15.0725 36.7899 16.0199C36.6015 16.9673 36.1363 17.8376 35.4533 18.5206C34.7703 19.2037 33.9 19.6688 32.9526 19.8573C32.0052 20.0457 31.0232 19.949 30.1308 19.5794C29.2384 19.2098 28.4756 18.5838 27.9389 17.7806C27.4022 16.9775 27.1158 16.0332 27.1158 15.0672C27.1158 13.7719 27.6304 12.5297 28.5463 11.6137C29.4622 10.6978 30.7044 10.1832 31.9998 10.1831Z" fill="#476C8F"/>
</svg>
