<?xml version="1.0" encoding="UTF-8"?>
<svg id="Layer_2" data-name="Layer 2" xmlns="http://www.w3.org/2000/svg" xmlns:xlink="http://www.w3.org/1999/xlink" viewBox="0 0 59.38 57.5">
  <defs>
    <style>
      .cls-1 {
        fill: url(#radial-gradient);
        stroke-width: 0px;
      }
    </style>
    <radialGradient id="radial-gradient" cx="31.71" cy="117.16" fx="31.71" fy="117.16" r="28.45" gradientTransform="translate(3.27 -107.39) rotate(3.89) scale(1 1.11)" gradientUnits="userSpaceOnUse">
      <stop offset="0" stop-color="#6b90b5"/>
      <stop offset=".17" stop-color="#6589ad"/>
      <stop offset=".44" stop-color="#567797"/>
      <stop offset=".77" stop-color="#3e5a74"/>
      <stop offset=".93" stop-color="#304960"/>
    </radialGradient>
  </defs>
  <g id="Layer_1-2" data-name="Layer 1">
    <path class="cls-1" d="m48.56,51.65c-7.67,6.71-19.34,7.58-28.33,2.94-11-5.64-11.79-19.22-5.29-28.68,2.64-3.95,6.33-7.1,10.51-9.29l-1.81-3.18,14.49,1.41-5.65,14.1-1.85-3.25c-.92.17-5.53,1.15-8.35,5.46-2.42,3.7-2.9,8.93-.37,12.93,2.83,4.46,7.98,5.15,9.72,5.37,6.2.8,10.94-2.4,12.42-3.42,6.29-4.37,9.8-12.44,9.31-19.36C52.2,10.34,34.14-.54,18.9,5.5-2.91,13.85-4.25,43.62,16.17,54.64,4.16,49.14-2.53,34.84.89,22.07,4.75,6.21,22.05-3.51,37.67,1.18c11.16,3.33,20.24,13.21,21.56,24.99,1.04,9.67-3.34,19.21-10.66,25.48Z"/>
  </g>
</svg>